#!OML:ASF E:\Style4\Style4.ASF
:FULLY-SPECIFIED
:DEGREES
2356
root -0.209303 17.3968 -1.28456 1.80012 8.35644 4.58332
lowerback 13.0886 3.50293 -0.00219794
upperback 7.20987 4.63265 -1.64654
thorax 0.391788 2.36904 -2.281
lowerneck 0.978708 -2.82655 -3.89273
upperneck 4.18662 -3.91 4.63963
head 1.32735 -1.94764 2.0944
rclavicle 1.61016e-014 -9.93923e-015
rhumerus 48.0149 -23.8674 -25.5693
rradius 76.6651
rwrist -21.802
rhand -0.0839543 9.87482
rfingers 7.12502
rthumb 25.51 -18.4375
lclavicle 1.61016e-014 -9.93923e-015
lhumerus 44.6961 25.7587 23.4757
lradius 83.3422
lwrist 16.8364
lhand 6.3432 24.992
lfingers 7.12502
lthumb 31.6503 52.2675
rfemur -22.4243 -9.28526 15.1519
rtibia 45.1362
rfoot -22.2398 -19.1631
rtoes -9.19037
lfemur -22.0443 -0.381132 -22.7117
ltibia 38.6862
lfoot -17.3812 5.16625
ltoes -14.5553
2357
root -0.219553 17.3778 -1.28841 1.67438 8.58681 4.6156
lowerback 13.1281 3.51817 0.0255135
upperback 7.26409 4.65787 -1.59135
thorax 0.426227 2.38251 -2.24268
lowerneck 1.02597 -2.91206 -3.93903
upperneck 4.19676 -4.02313 4.57568
head 1.32711 -2.00592 2.08084
rclavicle -5.1684e-015 -4.37326e-015
rhumerus 48.1299 -23.2974 -25.927
rradius 76.6598
rwrist -21.3404
rhand -0.110532 10.1359
rfingers 7.12502
rthumb 25.4845 -18.18
lclavicle -5.1684e-015 -4.37326e-015
lhumerus 44.7914 25.3653 24.1821
lradius 83.6366
lwrist 16.5904
lhand 6.22019 24.8759
lfingers 7.12502
lthumb 31.5331 52.1744
rfemur -22.4615 -9.58288 15.1268
rtibia 45.5182
rfoot -22.4344 -19.125
rtoes -9.11082
lfemur -22.1536 -0.444229 -22.7214
ltibia 39.0554
lfoot -17.52 5.04072
ltoes -14.9202
2358
root -0.228782 17.3609 -1.29252 1.54414 8.83154 4.58581
lowerback 13.1284 3.51536 0.108025
upperback 7.34797 4.66664 -1.51562
thorax 0.514772 2.3896 -2.20752
lowerneck 1.07481 -3.00185 -3.92377
upperneck 4.12269 -4.13737 4.43495
head 1.29594 -2.06509 2.0313
rclavicle -1.86858e-014 9.93923e-015
rhumerus 48.251 -22.7455 -26.3418
rradius 76.6804
rwrist -20.8434
rhand -0.042568 10.2923
rfingers 7.12502
rthumb 25.5496 -18.0143
lclavicle -1.86858e-014 9.93923e-015
lhumerus 44.7986 24.9803 24.8788
lradius 84.0133
lwrist 16.3867
lhand 6.06277 24.9332
lfingers 7.12502
lthumb 31.3831 52.2609
rfemur -22.476 -9.86735 15.161
rtibia 45.8633
rfoot -22.6177 -19.0898
rtoes -9.06269
lfemur -22.2458 -0.53601 -22.6628
ltibia 39.3973
lfoot -17.6059 4.88271
ltoes -15.0345
2359
root -0.237987 17.3453 -1.29672 1.43396 9.10061 4.56297
lowerback 13.111 3.50828 0.162623
upperback 7.42533 4.66667 -1.45369
thorax 0.604514 2.3918 -2.16915
lowerneck 1.0935 -3.09301 -3.82878
upperneck 4.07912 -4.25399 4.31081
head 1.27797 -2.12355 1.9726
rclavicle -3.63776e-014 1.70955e-014
rhumerus 48.216 -22.2387 -26.7027
rradius 76.7982
rwrist -20.4721
rhand 0.0584829 10.3176
rfingers 7.12502
rthumb 25.6464 -17.9751
lclavicle -3.63776e-014 1.70955e-014
lhumerus 44.754 24.5635 25.5198
lradius 84.4301
lwrist 16.0821
lhand 6.04269 25.0882
lfingers 7.12502
lthumb 31.364 52.4197
rfemur -22.5098 -10.1275 15.1823
rtibia 46.2019
rfoot -22.6287 -19.2613
rtoes -10.0616
lfemur -22.3442 -0.626871 -22.6158
ltibia 39.7087
lfoot -17.6954 4.69547
ltoes -14.8109
2360
root -0.248319 17.3288 -1.30212 1.30747 9.36782 4.69631
lowerback 13.1639 3.50409 0.0336108
upperback 7.52222 4.6498 -1.41936
thorax 0.664503 2.38045 -2.05953
lowerneck 1.00686 -3.17225 -3.87354
upperneck 4.09806 -4.35846 4.33487
head 1.30567 -2.17503 1.98577
rclavicle -5.96354e-015 7.95139e-015
rhumerus 48.1324 -21.7324 -27.0447
rradius 77.0539
rwrist -20.0547
rhand 0.149298 10.4279
rfingers 7.12502
rthumb 25.7334 -17.8523
lclavicle -5.96354e-015 7.95139e-015
lhumerus 44.7184 24.1541 26.1656
lradius 84.7842
lwrist 15.6386
lhand 6.05798 25.0806
lfingers 7.12502
lthumb 31.3786 52.4092
rfemur -22.5187 -10.3959 15.0278
rtibia 46.549
rfoot -22.6072 -19.4863
rtoes -11.3991
lfemur -22.388 -0.755294 -22.7377
ltibia 40.01
lfoot -17.745 4.56774
ltoes -14.667
2361
root -0.259022 17.3099 -1.30668 1.20974 9.59272 4.85953
lowerback 13.1744 3.50936 -0.150823
upperback 7.65644 4.64062 -1.3751
thorax 0.78163 2.37131 -1.90532
lowerneck 0.832826 -3.2432 -4.01133
upperneck 4.06717 -4.44855 4.37356
head 1.33523 -2.21992 2.01932
rclavicle -4.73108e-014 2.78299e-014
rhumerus 48.1251 -21.2659 -27.402
rradius 77.3043
rwrist -19.6197
rhand 0.178547 10.7608
rfingers 7.12502
rthumb 25.7614 -17.5153
lclavicle -4.73108e-014 2.78299e-014
lhumerus 44.7254 23.7775 26.822
lradius 85.0975
lwrist 15.2029
lhand 6.08063 24.9774
lfingers 7.12502
lthumb 31.4001 52.3018
rfemur -22.5526 -10.6224 14.8569
rtibia 46.9097
rfoot -22.9409 -19.3398
rtoes -10.5511
lfemur -22.4583 -0.865252 -22.8892
ltibia 40.3115
lfoot -17.8064 4.42855
ltoes -14.6641
2362
root -0.267555 17.2921 -1.30936 1.09322 9.81699 4.8025
lowerback 13.1575 3.57011 -0.0781568
upperback 7.54342 4.72791 -1.33201
thorax 0.676226 2.41524 -1.91497
lowerneck 1.53905 -3.30122 -3.8978
upperneck 3.88972 -4.54353 4.45238
head 1.16003 -2.27248 2.03548
rclavicle 2.38542e-015 -1.86858e-014
rhumerus 47.5791 -20.5172 -27.5987
rradius 77.6078
rwrist -19.2487
rhand 0.123296 10.8414
rfingers 7.12502
rthumb 25.7085 -17.4424
lclavicle 2.38542e-015 -1.86858e-014
lhumerus 44.7029 22.8841 27.389
lradius 85.4499
lwrist 14.9371
lhand 6.19229 24.9808
lfingers 7.12502
lthumb 31.5065 52.2844
rfemur -22.5668 -10.8312 14.9314
rtibia 47.2457
rfoot -23.2859 -19.2065
rtoes -9.66712
lfemur -22.5514 -1.00041 -22.8016
ltibia 40.622
lfoot -17.876 4.33409
ltoes -14.6376
2363
root -0.276626 17.2761 -1.31152 0.986191 10.0618 4.74723
lowerback 13.1796 3.56372 -0.0386151
upperback 7.57493 4.72568 -1.24767
thorax 0.693185 2.41422 -1.84951
lowerneck 1.48708 -3.35003 -3.93907
upperneck 3.9528 -4.61014 4.4937
head 1.19455 -2.30501 2.05449
rclavicle 5.28767e-014 -7.55382e-015
rhumerus 47.4241 -19.9576 -27.9005
rradius 77.8642
rwrist -18.957
rhand 0.206017 10.855
rfingers 7.12502
rthumb 25.7877 -17.4172
lclavicle 5.28767e-014 -7.55382e-015
lhumerus 44.6104 22.4105 27.95
lradius 85.7592
lwrist 14.8859
lhand 6.53861 24.9568
lfingers 7.12502
lthumb 31.8364 52.1954
rfemur -22.5747 -11.0122 15.003
rtibia 47.5478
rfoot -23.4592 -19.3156
rtoes -9.96101
lfemur -22.6529 -1.14054 -22.7159
ltibia 40.9313
lfoot -17.879 4.09113
ltoes -13.789
2364
root -0.286548 17.2613 -1.31622 0.8955 10.301 4.68834
lowerback 13.2012 3.54146 0.00804258
upperback 7.64945 4.70406 -1.1622
thorax 0.755802 2.40433 -1.78265
lowerneck 1.39496 -3.46876 -3.73263
upperneck 3.79595 -4.75357 4.24988
head 1.15356 -2.3758 1.93565
rclavicle -3.85642e-014 -1.59028e-015
rhumerus 47.3059 -19.5495 -28.1658
rradius 78.0994
rwrist -18.6287
rhand 0.325857 10.937
rfingers 7.12502
rthumb 25.9025 -17.3185
lclavicle -3.85642e-014 -1.59028e-015
lhumerus 44.5295 22.0634 28.4727
lradius 86.0315
lwrist 14.9251
lhand 7.16928 24.8323
lfingers 7.12502
lthumb 32.4368 51.9497
rfemur -22.6034 -11.1639 15.0785
rtibia 47.8034
rfoot -23.6279 -19.4124
rtoes -10.0164
lfemur -22.7743 -1.22224 -22.6283
ltibia 41.2304
lfoot -17.8461 3.92397
ltoes -13.696
2365
root -0.296324 17.2479 -1.3202 0.802825 10.5405 4.69317
lowerback 13.2268 3.51153 -0.0351755
upperback 7.70083 4.66203 -1.07831
thorax 0.784112 2.3809 -1.66644
lowerneck 1.45465 -3.56108 -3.62744
upperneck 3.56566 -4.86754 4.08404
head 1.06704 -2.43435 1.86429
rclavicle 2.50469e-014 -7.95139e-015
rhumerus 47.1871 -19.0656 -28.4723
rradius 78.3097
rwrist -18.1511
rhand 0.274956 11.2333
rfingers 7.12502
rthumb 25.8537 -17.0294
lclavicle 2.50469e-014 -7.95139e-015
lhumerus 44.3416 21.6509 28.8484
lradius 86.2567
lwrist 14.9254
lhand 7.55309 24.7502
lfingers 7.12502
lthumb 32.802 51.7919
rfemur -22.5982 -11.3302 15.0793
rtibia 48.0257
rfoot -23.7535 -19.4249
rtoes -9.61551
lfemur -22.8611 -1.3512 -22.6101
ltibia 41.4972
lfoot -17.9904 4.02246
ltoes -14.8034
2366
root -0.304736 17.2371 -1.32391 0.706749 10.7645 4.66529
lowerback 13.2424 3.49875 -0.0228123
upperback 7.7716 4.64902 -1.00947
thorax 0.84512 2.37451 -1.59856
lowerneck 1.42911 -3.60125 -3.60764
upperneck 3.43204 -4.91676 4.0598
head 1.02996 -2.45918 1.85283
rclavicle 2.80286e-014 3.26007e-014
rhumerus 47.089 -18.6266 -28.8743
rradius 78.4537
rwrist -17.7118
rhand 0.332709 11.4632
rfingers 7.12502
rthumb 25.909 -16.7914
lclavicle 2.80286e-014 3.26007e-014
lhumerus 44.2201 21.1863 29.1505
lradius 86.4698
lwrist 14.937
lhand 7.63805 24.7089
lfingers 7.12502
lthumb 32.8828 51.7338
rfemur -22.5828 -11.5046 15.1172
rtibia 48.231
rfoot -23.8506 -19.45
rtoes -9.47058
lfemur -22.9317 -1.47061 -22.5598
ltibia 41.7336
lfoot -18.0632 4.03204
ltoes -15.1808
2367
root -0.313803 17.226 -1.32839 0.606325 10.992 4.66701
lowerback 13.3034 3.48749 0.0019317
upperback 7.83393 4.63849 -1.00021
thorax 0.879457 2.3711 -1.60298
lowerneck 1.43846 -3.62287 -3.51212
upperneck 3.26674 -4.94196 4.07303
head 0.974892 -2.47126 1.84131
rclavicle 1.49089e-014 -1.43125e-014
rhumerus 46.8615 -18.2586 -29.2353
rradius 78.6553
rwrist -17.4417
rhand 0.370443 11.5066
rfingers 7.12502
rthumb 25.9451 -16.7427
lclavicle 1.49089e-014 -1.43125e-014
lhumerus 44.1898 20.7158 29.4013
lradius 86.6274
lwrist 14.9126
lhand 7.72353 24.8492
lfingers 7.12502
lthumb 32.9641 51.857
rfemur -22.5401 -11.6716 15.1209
rtibia 48.4151
rfoot -23.9561 -19.4966
rtoes -9.3145
lfemur -22.9813 -1.57922 -22.5421
ltibia 41.9386
lfoot -18.0589 3.88045
ltoes -14.9683
2368
root -0.322513 17.2141 -1.33334 0.532891 11.213 4.70187
lowerback 13.3759 3.47496 0.00976627
upperback 7.86514 4.62367 -1.0045
thorax 0.874522 2.36483 -1.61361
lowerneck 1.46203 -3.6566 -3.46339
upperneck 3.12948 -4.98404 4.0699
head 0.927867 -2.49255 1.83274
rclavicle -3.37934e-014 1.66979e-014
rhumerus 46.5595 -17.9169 -29.4447
rradius 78.8883
rwrist -17.2333
rhand 0.329995 11.5226
rfingers 7.12502
rthumb 25.9064 -16.7323
lclavicle -3.37934e-014 1.66979e-014
lhumerus 44.1176 20.2464 29.5423
lradius 86.6945
lwrist 14.8648
lhand 7.73438 25.0076
lfingers 7.12502
lthumb 32.9744 52.0132
rfemur -22.5188 -11.8022 15.092
rtibia 48.5822
rfoot -24.0216 -19.6096
rtoes -9.38468
lfemur -23.0414 -1.73475 -22.5581
ltibia 42.1251
lfoot -18.0725 3.79741
ltoes -14.929
